<svg width="26" height="26" viewBox="0 0 26 26" fill="none" xmlns="http://www.w3.org/2000/svg">
<path d="M12.987 2.57194C12.7662 2.57539 12.5559 2.66627 12.4021 2.82464C12.2483 2.98301 12.1636 3.19593 12.1667 3.41667V3.83333H7.58332C7.47293 3.83184 7.36335 3.85228 7.26093 3.89349C7.15851 3.9347 7.0653 3.99584 6.98671 4.07337C6.90812 4.1509 6.84572 4.24327 6.80312 4.34512C6.76053 4.44697 6.7386 4.55627 6.73859 4.66667H5.49999C5.38956 4.6651 5.27993 4.68551 5.17745 4.72668C5.07498 4.76786 4.98171 4.829 4.90307 4.90653C4.82443 4.98407 4.76198 5.07646 4.71936 5.17834C4.67673 5.28023 4.65479 5.38956 4.65479 5.5C4.65479 5.61044 4.67673 5.71977 4.71936 5.82165C4.76198 5.92354 4.82443 6.01593 4.90307 6.09347C4.98171 6.171 5.07498 6.23214 5.17745 6.27332C5.27993 6.31449 5.38956 6.33489 5.49999 6.33333H20.5C20.6104 6.33489 20.72 6.31449 20.8225 6.27332C20.925 6.23214 21.0183 6.171 21.0969 6.09347C21.1755 6.01593 21.238 5.92354 21.2806 5.82165C21.3232 5.71977 21.3452 5.61044 21.3452 5.5C21.3452 5.38956 21.3232 5.28023 21.2806 5.17834C21.238 5.07646 21.1755 4.98407 21.0969 4.90653C21.0183 4.829 20.925 4.76786 20.8225 4.72668C20.72 4.68551 20.6104 4.6651 20.5 4.66667H19.2614C19.2614 4.55627 19.2394 4.44697 19.1969 4.34512C19.1543 4.24327 19.0919 4.1509 19.0133 4.07337C18.9347 3.99584 18.8415 3.9347 18.739 3.89349C18.6366 3.85228 18.527 3.83184 18.4167 3.83333H13.8333V3.41667C13.8348 3.30518 13.814 3.19451 13.772 3.09123C13.73 2.98794 13.6676 2.89414 13.5887 2.81537C13.5098 2.73661 13.4159 2.67448 13.3125 2.63266C13.2092 2.59085 13.0985 2.5702 12.987 2.57194ZM5.49999 8L6.99413 20.6953C7.09246 21.5345 7.80277 22.1667 8.64777 22.1667H17.3522C18.1972 22.1667 18.9067 21.5345 19.0058 20.6953L20.5 8H5.49999Z" fill="white"/>
</svg>
