<svg width="20" height="20" viewBox="0 0 20 20" fill="none" xmlns="http://www.w3.org/2000/svg">
<path d="M18.1789 8.17453H11.8202V1.82107C11.8202 0.815383 11.0087 0 10.0031 0C8.99738 0 8.1864 0.815383 8.1864 1.82151V8.17894H1.82457C0.818888 8.17894 0.00130311 8.99432 0.00174361 10.0004C0.00130311 10.5031 0.204378 10.9638 0.533438 11.2929C0.862939 11.6228 1.31754 11.8312 1.81973 11.8312H8.1864V18.1798C8.1864 18.6829 8.38596 19.1384 8.71546 19.467C9.04496 19.7965 9.49824 20.0004 10.0013 20.0004C11.0065 20.0004 11.8202 19.1851 11.8202 18.1798V11.8308H18.1789C19.1846 11.8308 20 11.0083 19.9995 10.0026C19.9991 8.9974 19.1837 8.17453 18.1789 8.17453Z" fill="white"/>
</svg>
